<!-- Nothing (R) Inspired Minimalist Glyph Examples -->

<!-- Settings/Gear -->
<svg xmlns="http://www.w3.org/2000/svg" viewBox="0 0 24 24" width="24" height="24" stroke="#000000" stroke-width="1.5" fill="none" stroke-linecap="round" stroke-linejoin="round">
  <circle cx="12" cy="12" r="3"/>
  <path d="M12 1v6m0 6v6M1 12h6m6 0h6M4.22 4.22l4.24 4.24m0 5.08l4.24 4.24M19.78 4.22l-4.24 4.24m0 5.08l-4.24 4.24"/>
</svg>

<!-- Close/X -->
<svg xmlns="http://www.w3.org/2000/svg" viewBox="0 0 24 24" width="24" height="24" stroke="#000000" stroke-width="1.5" fill="none" stroke-linecap="round" stroke-linejoin="round">
  <line x1="18" y1="6" x2="6" y2="18"/>
  <line x1="6" y1="6" x2="18" y2="18"/>
</svg>

<!-- Menu/Hamburger -->
<svg xmlns="http://www.w3.org/2000/svg" viewBox="0 0 24 24" width="24" height="24" stroke="#000000" stroke-width="1.5" fill="none" stroke-linecap="round" stroke-linejoin="round">
  <line x1="3" y1="6" x2="21" y2="6"/>
  <line x1="3" y1="12" x2="21" y2="12"/>
  <line x1="3" y1="18" x2="21" y2="18"/>
</svg>

<!-- Home -->
<svg xmlns="http://www.w3.org/2000/svg" viewBox="0 0 24 24" width="24" height="24" stroke="#000000" stroke-width="1.5" fill="none" stroke-linecap="round" stroke-linejoin="round">
  <path d="M3 9l9-7 9 7v11a2 2 0 0 1-2 2H5a2 2 0 0 1-2-2z"/>
  <polyline points="9 22 9 12 15 12 15 22"/>
</svg>

<!-- Folder -->
<svg xmlns="http://www.w3.org/2000/svg" viewBox="0 0 24 24" width="24" height="24" stroke="#000000" stroke-width="1.5" fill="none" stroke-linecap="round" stroke-linejoin="round">
  <path d="M22 19a2 2 0 0 1-2 2H4a2 2 0 0 1-2-2V5a2 2 0 0 1 2-2h5l2 3h9a2 2 0 0 1 2 2z"/>
</svg>

<!-- Document/File -->
<svg xmlns="http://www.w3.org/2000/svg" viewBox="0 0 24 24" width="24" height="24" stroke="#000000" stroke-width="1.5" fill="none" stroke-linecap="round" stroke-linejoin="round">
  <path d="M13 2H6a2 2 0 0 0-2 2v16a2 2 0 0 0 2 2h12a2 2 0 0 0 2-2V9z"/>
  <polyline points="13 2 13 9 20 9"/>
</svg>

<!-- Search/Magnifying Glass -->
<svg xmlns="http://www.w3.org/2000/svg" viewBox="0 0 24 24" width="24" height="24" stroke="#000000" stroke-width="1.5" fill="none" stroke-linecap="round" stroke-linejoin="round">
  <circle cx="11" cy="11" r="8"/>
  <line x1="21" y1="21" x2="16.65" y2="16.65"/>
</svg>

<!-- Check/Checkmark -->
<svg xmlns="http://www.w3.org/2000/svg" viewBox="0 0 24 24" width="24" height="24" stroke="#000000" stroke-width="1.5" fill="none" stroke-linecap="round" stroke-linejoin="round">
  <polyline points="20 6 9 17 4 12"/>
</svg>

<!-- Edit/Pencil -->
<svg xmlns="http://www.w3.org/2000/svg" viewBox="0 0 24 24" width="24" height="24" stroke="#000000" stroke-width="1.5" fill="none" stroke-linecap="round" stroke-linejoin="round">
  <path d="M11 4H4a2 2 0 0 0-2 2v14a2 2 0 0 0 2 2h14a2 2 0 0 0 2-2v-7"/>
  <path d="M18.5 2.5a2.121 2.121 0 0 1 3 3L12 15l-4 1 1-4 9.5-9.5z"/>
</svg>

<!-- Delete/Trash -->
<svg xmlns="http://www.w3.org/2000/svg" viewBox="0 0 24 24" width="24" height="24" stroke="#000000" stroke-width="1.5" fill="none" stroke-linecap="round" stroke-linejoin="round">
  <polyline points="3 6 5 6 21 6"/>
  <path d="M19 6v14a2 2 0 0 1-2 2H7a2 2 0 0 1-2-2V6m3 0V4a2 2 0 0 1 2-2h4a2 2 0 0 1 2 2v2"/>
  <line x1="10" y1="11" x2="10" y2="17"/>
  <line x1="14" y1="11" x2="14" y2="17"/>
</svg>

